<svg viewBox="0 0 200 60" xmlns="http://www.w3.org/2000/svg">
  <defs>
    <!-- Banamex red gradient -->
    <linearGradient id="banamexGradient" x1="0%" y1="0%" x2="100%" y2="0%">
      <stop offset="0%" style="stop-color:#E31E24;stop-opacity:1" />
      <stop offset="100%" style="stop-color:#C41E3A;stop-opacity:1" />
    </linearGradient>
  </defs>

  <!-- Background -->
  <rect width="200" height="60" fill="url(#banamexGradient)" rx="4"/>

  <!-- Banamex logo mark (stylized B) -->
  <g transform="translate(15, 12)">
    <path d="M0 0h8c4.4 0 8 3.6 8 8v2c0 2.2-1.8 4-4 4h-4v8c0 2.2-1.8 4-4 4h-4V0z
             M4 4v8h4c1.1 0 2-.9 2-2V8c0-2.2-1.8-4-4-4H4z
             M4 16v8h4c1.1 0 2-.9 2-2v-4c0-1.1-.9-2-2-2H4z"
          fill="white"/>
    <path d="M16 8c0-1.1.9-2 2-2h4c2.2 0 4 1.8 4 4v12c0 2.2-1.8 4-4 4h-6V8z
             M20 10v12h2c1.1 0 2-.9 2-2V12c0-1.1-.9-2-2-2h-2z"
          fill="white"/>
  </g>

  <!-- Banamex text -->
  <g transform="translate(60, 20)" fill="white">
    <text font-family="Arial, sans-serif" font-size="16" font-weight="bold">
      <tspan x="0" y="0">BANAMEX</tspan>
      <tspan x="0" y="18" font-size="10" font-weight="normal">Citibanamex</tspan>
    </text>
  </g>
</svg>