<svg xmlns="http://www.w3.org/2000/svg" viewBox="0 0 100 100">
<style>
	.st0{fill:#003F87;}
	.st1{fill:#ED1C27;}
</style>
<g transform="translate(5, 15) scale(0.03)">
	<path class="st0" d="M738.2,166.9c76.7,0,140.6,25.7,191.6,77.2c50.9,51.5,76.4,113.7,76.4,186.6c0,74.1-25.9,137-77.6,188.7
		c-51.7,51.7-113.7,77.6-186,77.6H559.9V166.9H738.2z M731.8,643.5c54.6,0,100.7-19.3,138.2-58c37.5-38.6,56.3-84.8,56.3-138.8
		c0-52.8-18.4-97.8-55.2-135c-36.8-37.2-82.2-55.8-136.2-55.8H637.7v387.5H731.8z"/>
	<path class="st0" d="M1276.8,501.7c-5.3,50.9-23.3,92.7-53.9,125.3c-30.6,32.6-70.2,48.9-118.8,48.9c-55.9,0-102.1-20-138.5-60.1
		c-36.4-40.1-54.6-88.7-54.6-145.7c0-58.3,18.9-107.6,56.7-147.7c37.8-40.1,84.3-60.2,139.5-60.2c47.4,0,86.4,16,117,48.1
		c30.5,32.1,48.1,73.5,52.7,124.4h-79.5c-3.9-29.2-13.6-52.1-29.2-68.6c-15.6-16.5-36.3-24.7-62.1-24.7
		c-33.9,0-61.4,12.5-82.4,37.5c-21,25-31.5,56.5-31.5,94.4c0,36.7,10.3,67.4,30.9,92.1c20.6,24.7,47.5,37,80.7,37
		c26.5,0,47.8-8.4,64-25.3c16.2-16.8,26.3-40.1,30.3-69.9H1276.8z"/>
	<path class="st0" d="M1612.7,262.1v435.8h-78.8l-185.2-320.7v320.7h-77.9V262.1h78.8l185.2,320.7V262.1H1612.7z"/>
	<path class="st0" d="M2065.8,262.1l-127,435.8h-91.3l-87.2-290.5l-88.3,290.5h-91.3l-127-435.8h81.9l88.3,320.7l90.4-320.7h81.9
		l90.4,320.7l88.3-320.7H2065.8z"/>
	<path class="st0" d="M2430.8,509.9h-221.4c2.3,27.8,12,50.3,29.2,67.4c17.2,17.1,37.8,25.7,61.9,25.7c17.5,0,32.8-4.2,45.9-12.6
		c13.1-8.4,23.1-20.3,30-35.7h77.9c-11.7,35.7-31.7,64.7-60.1,87c-28.4,22.3-62.5,33.5-102.4,33.5c-52.2,0-95.6-18.9-130.1-56.7
		c-34.5-37.8-51.8-84.9-51.8-141.3c0-56.4,17.3-103.5,51.8-141.3c34.5-37.8,77.9-56.7,130.1-56.7c52.2,0,95.6,18.9,130.1,56.7
		c34.5,37.8,51.8,84.9,51.8,141.3L2430.8,509.9z M2351.9,454.1c-2.3-26.5-11.7-47.8-28.2-63.9c-16.5-16.1-36.7-24.2-60.5-24.2
		c-23.8,0-44,8.1-60.5,24.2c-16.5,16.1-25.9,37.4-28.2,63.9H2351.9z"/>
	<path class="st1" d="M2921.8,166.9c76.7,0,140.6,25.7,191.6,77.2c50.9,51.5,76.4,113.7,76.4,186.6c0,74.1-25.9,137-77.6,188.7
		c-51.7,51.7-113.7,77.6-186,77.6h-182.7V166.9H2921.8z M2915.4,643.5c54.6,0,100.7-19.3,138.2-58c37.5-38.6,56.3-84.8,56.3-138.8
		c0-52.8-18.4-97.8-55.2-135c-36.8-37.2-82.2-55.8-136.2-55.8h-94.1v387.5H2915.4z"/>
</g>
</svg>
