<svg xmlns="http://www.w3.org/2000/svg" viewBox="0 0 100 100">
<style>
	.st0{fill:#004580;}
</style>
<g transform="translate(-1450, -530) scale(0.056)">
	<path class="st0" d="M1398.9,529.8c0,155.1-114,266.6-274,266.6H813.2V263.1h295.7c157.6,0,274,106.9,274,266.6V529.8z
		 M1243.9,529.8c0-88.1-56.8-132.5-134.6-132.5H969.4v266.6h139.8c77.9,0,134.6-47.1,134.6-134.6V529.8z"/>
	<path class="st0" d="M1880.3,529.8c0,155.1-114,266.6-274,266.6h-311.7V263.1h295.7c157.6,0,274,106.9,274,266.6V529.8z
		 M1725.3,529.8c0-88.1-56.8-132.5-134.6-132.5h-139.8v266.6h139.8c77.9,0,134.6-47.1,134.6-134.6V529.8z"/>
	<path class="st0" d="M2380.5,263.1l-168.7,533.3h-168.7l-168.7-533.3h167.3l83.9,319.4l83.9-319.4H2380.5z"/>
	<path class="st0" d="M2885.3,796.4h-167.3l-25.4-95.5h-195.4l-25.4,95.5h-167.3l192.3-533.3h197.5L2885.3,796.4z M2635.9,571.8
		l-51.2-192.3l-51.2,192.3H2635.9z"/>
	<polygon class="st0" points="480.1,647.7 283.2,647.7 283.2,263.1 480.1,263.1 480.1,397.3 636.2,397.3 636.2,529.8 480.1,529.8"/>
</g>
</svg>
